<svg width="203" height="198" viewBox="0 0 203 198" fill="none" xmlns="http://www.w3.org/2000/svg">
<g clip-path="url(#clip0_1_75)">
<path fill-rule="evenodd" clip-rule="evenodd" d="M100.42 149.163C78.4784 160.364 54.1163 167.507 31.4451 162.696C23.1185 160.928 15.7023 156.922 8.08082 152.905C7.41094 152.552 7.15757 151.737 7.51766 151.091C7.87495 150.444 8.71175 150.202 9.37884 150.555C16.769 154.451 23.9439 158.37 32.0114 160.082C54.3403 164.822 78.3158 157.553 99.8699 146.414C99.8272 146.21 99.7817 146.005 99.7362 145.8C98.7353 141.293 100.486 135.119 103.809 128.815C108.631 119.662 116.685 110.182 123.485 105.236C126.621 102.953 129.546 101.637 131.812 101.564C133.7 101.502 135.229 102.189 136.284 103.733C137.151 105.008 137.548 106.545 137.506 108.284C137.448 110.605 136.597 113.327 135.155 116.225C129.819 126.949 116.388 140.268 109.509 144.226C107.354 145.466 105.169 146.673 102.952 147.845C103.206 149.137 103.453 150.371 103.8 151.524C104.31 153.218 105.033 154.724 106.421 155.917C108.98 158.12 112.285 158.849 115.764 158.787C121.333 158.691 127.341 156.585 131.813 154.694C156.965 144.064 171.457 122.017 180.601 99.2316C189.85 76.1886 193.63 52.36 197.238 38.4754C197.425 37.7615 198.175 37.3307 198.911 37.5177C199.647 37.7011 200.094 38.4329 199.91 39.1471C196.281 53.1074 192.464 77.056 183.169 100.218C173.768 123.638 158.78 146.221 132.925 157.149C128.167 159.157 121.76 161.357 115.833 161.462C111.642 161.532 107.687 160.567 104.605 157.915C102.809 156.368 101.817 154.445 101.159 152.259C100.863 151.279 100.635 150.24 100.42 149.163ZM102.392 145.088C101.576 141.057 103.319 135.629 106.262 130.047C110.896 121.251 118.613 112.132 125.146 107.378C127.335 105.786 129.365 104.687 131.081 104.34C132.322 104.087 133.356 104.265 133.991 105.198C134.722 106.271 134.879 107.632 134.675 109.174C134.442 110.95 133.723 112.944 132.673 115.05C127.555 125.334 114.69 138.129 108.095 141.922C106.217 143 104.314 144.058 102.392 145.088Z" fill="#29272F"/>
<path fill-rule="evenodd" clip-rule="evenodd" d="M6.34897 148.54C6.3661 149.158 6.58323 149.968 6.84298 150.822C7.42811 152.756 8.34107 154.856 8.73732 155.866C9.00583 156.558 8.65013 157.329 7.93882 157.587C7.2275 157.844 6.43318 157.49 6.16188 156.798C5.68006 155.563 4.47215 152.779 3.91762 150.529C3.63288 149.372 3.53253 148.327 3.66764 147.6C3.8038 146.887 4.16474 146.44 4.63665 146.149C5.13304 145.844 5.85944 145.716 6.79023 145.86C7.81263 146.018 9.23781 146.514 10.8327 146.829C12.1704 147.094 13.6508 147.234 15.0728 146.747C15.7884 146.501 16.5786 146.865 16.8351 147.563C17.092 148.257 16.7228 149.023 16.0076 149.266C13.3406 150.182 10.5177 149.563 8.30054 148.969C7.64012 148.791 6.81403 148.625 6.34897 148.54Z" fill="#29272F"/>
</g>
<defs>
<clipPath id="clip0_1_75">
<rect width="181.767" height="176.351" fill="white" transform="matrix(-0.992465 -0.122526 -0.122526 0.992465 202.005 22.271)"/>
</clipPath>
</defs>
</svg>
