<svg width="166" height="46" viewBox="0 0 166 46" fill="none" xmlns="http://www.w3.org/2000/svg">
<g clip-path="url(#clip0_1_30)">
<path d="M29.0127 44.4396C27.7684 44.4435 26.5241 44.4475 25.2424 44.4082C25.2049 41.2187 25.2128 38.0723 25.1997 34.926C25.1962 34.0916 24.8583 33.3927 24.1424 32.9339C23.6777 32.636 23.1558 32.4838 22.596 32.4844C20.8823 32.486 19.1679 32.5113 17.455 32.4721C16.7632 32.4562 16.447 32.8142 16.4495 33.4952C16.4632 37.1433 16.4561 40.7915 16.4562 44.4396C15.2659 44.4435 14.0756 44.4475 12.8479 44.4082C12.8104 40.7055 12.8106 37.0459 12.8103 33.3862C12.8103 32.7453 12.5561 32.4853 11.9282 32.4852C9.60854 32.4846 7.28885 32.4848 4.96916 32.4851C4.32506 32.4852 4.06165 32.7443 4.06161 33.3794C4.06134 37.0662 4.06162 40.7529 4.06172 44.4396C2.85946 44.4396 1.65721 44.4396 0.398196 44.4396C0.398196 44.144 0.398196 43.866 0.366587 43.5727C0.334977 43.1486 0.334977 42.7398 0.366838 42.2773C0.404461 40.6131 0.411945 39.0025 0.415596 37.3919C0.421517 34.7792 0.424924 32.1664 0.466479 29.5538C8.53185 29.5539 16.5601 29.5487 24.5884 29.5601C25.7084 29.5617 26.675 30.0305 27.5027 30.7697C28.578 31.73 28.9995 32.9892 29.0068 34.3913C29.0243 37.7406 29.0126 41.0902 29.0127 44.4396Z" fill="#29272F"/>
<path d="M0.334976 2.5619C0.362522 2.30182 0.390069 2.07974 0.460071 1.82366C5.89368 1.78966 11.2848 1.78966 16.6687 1.78966C16.6687 2.99457 16.6687 4.12688 16.6687 5.3005C14.675 5.3005 12.7111 5.3005 10.6928 5.3005C10.6928 9.14292 10.6928 12.944 10.6928 16.7433C9.24086 16.7433 7.84425 16.7433 6.39286 16.7433C6.39286 12.9143 6.39286 9.11322 6.39286 5.2973C4.36792 5.2973 2.39809 5.2973 0.422908 5.25921C0.390029 4.75627 0.362502 4.29141 0.334976 3.82655C0.334976 3.41767 0.334976 3.00879 0.334976 2.5619Z" fill="#29272F"/>
<path d="M111.436 44.4455C110.673 44.1998 110.021 43.8211 109.663 43.1326C109.431 42.6874 109.24 42.1611 109.232 41.6677C109.189 39.1312 109.177 36.5929 109.223 34.0565C109.262 31.8093 110.831 30.0456 113.006 29.6395C113.332 29.5787 113.669 29.5582 114.001 29.5575C116.944 29.5514 119.888 29.554 122.831 29.554C122.978 29.554 123.125 29.554 123.318 29.554C123.282 29.6858 123.268 29.7874 123.226 29.8756C122.867 30.6347 122.494 31.3872 122.145 32.1511C122.031 32.4011 121.893 32.495 121.608 32.4929C119.583 32.478 117.557 32.4777 115.532 32.4882C114.574 32.4931 113.774 32.8754 113.306 33.7279C113.087 34.1291 112.964 34.6327 112.955 35.0931C112.916 36.9376 112.937 38.7834 112.939 40.6287C112.94 41.132 113.15 41.5406 113.822 41.5353C117.359 41.5072 120.896 41.5221 124.433 41.5221C124.58 41.5221 124.727 41.5221 124.918 41.5221C124.918 35.7402 124.918 29.9828 124.918 24.2031C126.145 24.2031 127.328 24.2031 128.574 24.2031C128.574 30.9197 128.574 37.6424 128.574 44.4023C128.493 44.4441 128.413 44.4525 128.332 44.4525C122.713 44.4526 117.093 44.452 111.436 44.4455Z" fill="#29272F"/>
<path d="M34.3152 44.4455C33.1494 44.0814 32.2572 43.3965 32.1621 42.1751C32.0439 40.658 32.0534 39.1177 32.1673 37.5995C32.2708 36.2198 33.7216 35.4782 34.8569 35.4884C37.7998 35.515 40.7431 35.4973 43.6863 35.4973C43.8335 35.4973 43.9806 35.4973 44.2094 35.4973C43.8563 36.227 43.5372 36.9102 43.1881 37.5774C43.1448 37.6601 42.9418 37.6904 42.8126 37.6908C40.7065 37.6975 38.6004 37.6954 36.4943 37.6957C35.8509 37.6957 35.6557 37.8906 35.6553 38.5322C35.655 39.292 35.6522 40.0519 35.6564 40.8117C35.659 41.2909 35.8932 41.5219 36.3647 41.5219C40.1584 41.5223 43.9521 41.5221 47.7457 41.5221C47.853 41.5221 47.9603 41.5221 48.1308 41.5221C48.1308 41.3642 48.1308 41.2219 48.1308 41.0796C48.1308 39.0037 48.1309 36.9277 48.1307 34.8518C48.1306 33.5867 47.112 32.5664 45.8489 32.5664C42.2307 32.5663 38.6125 32.5664 34.9943 32.5664C34.8471 32.5664 34.7 32.5664 34.5073 32.5664C34.543 32.4455 34.5578 32.358 34.5936 32.2802C34.9715 31.4572 35.3607 30.6394 35.7275 29.8116C35.8187 29.6056 35.931 29.5485 36.1476 29.5489C39.9548 29.5559 43.7627 29.513 47.5689 29.5749C49.0142 29.5984 50.1991 30.3048 51.0548 31.5218C51.6211 32.3273 51.8649 33.2087 51.8616 34.1889C51.8502 37.5809 51.8573 40.973 51.8574 44.4023C51.7769 44.4441 51.6964 44.4525 51.6158 44.4525C45.8614 44.4526 40.1071 44.452 34.3152 44.4455Z" fill="#29272F"/>
<path d="M148.458 44.4455C147.901 44.2377 147.41 44.0075 147.015 43.5811C146.507 43.0322 146.26 42.3831 146.242 41.6607C146.212 40.481 146.22 39.2998 146.237 38.1197C146.258 36.623 147.508 35.4952 148.868 35.4965C151.866 35.4993 154.863 35.4974 157.86 35.4974C157.994 35.4974 158.127 35.4974 158.291 35.4974C158.28 35.5964 158.289 35.6773 158.26 35.7406C158.006 36.2979 157.736 36.8484 157.489 37.409C157.385 37.6446 157.231 37.702 156.987 37.7009C154.867 37.6917 152.748 37.6954 150.628 37.6957C149.996 37.6958 149.8 37.8948 149.799 38.5442C149.796 39.2633 149.795 39.9824 149.799 40.7015C149.802 41.3189 150.006 41.5219 150.615 41.522C154.355 41.5223 158.095 41.5221 161.834 41.5221C161.966 41.5221 162.098 41.5221 162.274 41.5221C162.274 41.3426 162.274 41.1977 162.274 41.0528C162.274 38.9498 162.246 36.8462 162.284 34.7439C162.306 33.5684 161.015 32.5594 160.088 32.5621C156.429 32.5726 152.77 32.5664 149.112 32.5664C148.969 32.5664 148.827 32.5664 148.644 32.5664C148.684 32.4382 148.698 32.3616 148.73 32.2937C149.116 31.4736 149.508 30.6563 149.89 29.8346C149.987 29.6276 150.115 29.5473 150.354 29.5479C154.161 29.5566 157.969 29.5149 161.775 29.5721C163.437 29.5971 165.125 30.7527 165.761 32.549C165.803 32.6668 165.871 32.7752 165.956 32.8899C165.991 35.8495 165.996 38.8072 166 41.765C166.001 42.6448 166 43.5247 166 44.4514C160.149 44.4514 154.322 44.4514 148.458 44.4455Z" fill="#29272F"/>
<path d="M87.1337 44.4455C87.0962 39.4924 87.0962 34.5451 87.0962 29.554C87.2891 29.554 87.4468 29.554 87.6045 29.554C92.0311 29.554 96.4579 29.5809 100.884 29.5423C103.007 29.5238 104.951 30.9228 105.48 32.927C105.57 33.2718 105.639 33.6344 105.641 33.9891C105.652 37.4477 105.648 40.9064 105.648 44.4023C104.431 44.4435 103.213 44.4475 101.959 44.4082C101.921 41.1927 101.922 38.0203 101.921 34.8478C101.921 34.233 101.704 33.7019 101.277 33.2654C100.769 32.7463 100.137 32.491 99.4206 32.4886C96.6957 32.4796 93.9707 32.4847 91.2458 32.4857C91.1152 32.4858 90.9846 32.4973 90.8232 32.5049C90.8232 36.501 90.8232 40.4703 90.8232 44.4396C89.6059 44.4436 88.3885 44.4475 87.1337 44.4455Z" fill="#29272F"/>
<path d="M46.965 1.63512C47.5398 1.71775 48.0793 1.77987 48.6127 1.87631C49.2946 1.9996 49.9739 2.14037 50.6479 2.3013C50.7424 2.32388 50.8833 2.526 50.8617 2.60728C50.6046 3.57745 50.3208 4.54047 50.0383 5.52543C48.0658 5.09677 46.0867 4.88034 44.0863 4.9747C43.1514 5.01879 42.2233 5.16183 41.3804 5.62671C40.2318 6.26026 39.7272 7.30628 39.5471 8.54862C39.4307 9.35184 39.4461 10.158 39.6492 10.9471C40.0366 12.4525 41.087 13.2346 42.5439 13.5042C43.2768 13.6398 44.0299 13.7583 44.7703 13.7398C45.9305 13.7108 47.09 13.581 48.2452 13.4521C49.0226 13.3653 49.792 13.2066 50.5874 13.0764C50.8428 14.0778 51.0964 15.0724 51.3742 16.1617C50.3278 16.3673 49.3 16.5827 48.2671 16.7693C46.4699 17.0939 44.6512 17.0502 42.8396 17.0039C41.3367 16.9656 39.8549 16.7009 38.492 16.0298C36.8037 15.1986 35.7359 13.8336 35.3362 11.98C34.8991 9.95337 34.9437 7.93572 35.6651 5.97858C36.2701 4.33723 37.4677 3.22743 39.0434 2.5413C40.2155 2.03091 41.4546 1.758 42.7555 1.66478C44.1603 1.63676 45.5436 1.63331 46.965 1.63512Z" fill="#29272F"/>
<path d="M133.714 44.4455C133.677 41.0632 133.671 37.6868 133.679 34.3104C133.685 31.9426 135.186 30.0427 137.54 29.6334C137.762 29.5948 137.987 29.5577 138.211 29.5573C141.18 29.5523 144.148 29.554 147.116 29.554C147.262 29.554 147.408 29.554 147.601 29.554C147.515 29.7287 147.444 29.869 147.376 30.0109C147.032 30.732 146.677 31.4482 146.351 32.1777C146.241 32.4251 146.102 32.4935 145.839 32.4918C143.896 32.4792 141.953 32.4705 140.011 32.4896C138.531 32.5042 137.387 33.4925 137.397 35.0901C137.418 38.1817 137.404 41.2734 137.404 44.4023C136.186 44.4435 134.969 44.4475 133.714 44.4455Z" fill="#29272F"/>
<path d="M70.7697 44.4455C70.7323 41.2263 70.7315 38.013 70.733 34.7996C70.7335 33.6591 69.8466 32.7581 68.8144 32.5715C68.4754 32.5103 68.1253 32.4896 67.7802 32.4886C65.4078 32.4817 63.0353 32.485 60.6112 32.485C61.0853 31.4907 61.543 30.5309 62.0089 29.554C63.0657 29.554 64.117 29.554 65.1683 29.554C66.7467 29.554 68.3252 29.5664 69.9035 29.5509C71.9664 29.5306 74.0791 31.1071 74.3813 33.2777C74.4125 33.5018 74.4553 33.7274 74.4556 33.9523C74.4604 37.4232 74.459 40.8942 74.4591 44.4023C73.2419 44.4435 72.0245 44.4475 70.7697 44.4455Z" fill="#29272F"/>
<path d="M55.6209 44.4455C55.5834 37.7008 55.5834 30.9619 55.5834 24.2018C56.83 24.2018 58.0396 24.2018 59.3102 24.2018C59.3102 30.9211 59.3102 37.6431 59.3103 44.4023C58.093 44.4435 56.8757 44.4475 55.6209 44.4455Z" fill="#29272F"/>
<path d="M78.9517 44.4455C78.9143 39.9524 78.918 35.4651 78.907 30.9779C78.9062 30.6543 78.9664 30.4496 79.2707 30.2818C80.3153 29.7061 81.3417 29.0972 82.3764 28.5035C82.4416 28.466 82.5188 28.4496 82.641 28.405C82.641 33.749 82.641 39.057 82.6411 44.4024C81.4239 44.4435 80.2065 44.4475 78.9517 44.4455Z" fill="#29272F"/>
<path d="M28.7694 13.4336C30.3185 13.4336 31.8271 13.4336 33.3611 13.4336C33.3611 14.5538 33.3611 15.6321 33.3611 16.7411C28.4742 16.7411 23.5942 16.7411 18.6786 16.7411C18.6786 11.7805 18.6786 6.81212 18.6786 1.81741C23.4026 1.81741 28.1206 1.81741 32.8698 1.81741C32.8698 2.90044 32.8698 3.97877 32.8698 5.11404C29.5555 5.11404 26.2316 5.11404 22.8819 5.11404C22.8819 5.94999 22.8819 6.72974 22.8819 7.55202C25.9854 7.55202 29.0836 7.55202 32.2172 7.55202C32.2172 8.6002 32.2172 9.60662 32.2172 10.6557C29.1132 10.6557 26.015 10.6557 22.8864 10.6557C22.8864 11.5856 22.8864 12.474 22.8864 13.4336C24.8283 13.4336 26.7786 13.4336 28.7694 13.4336Z" fill="#29272F"/>
<path d="M63.3606 11.6425C61.5145 11.6425 59.709 11.6425 57.8615 11.6425C57.8615 13.3594 57.8615 15.0351 57.8615 16.7409C56.423 16.7409 55.026 16.7409 53.5937 16.7409C53.5937 11.78 53.5937 6.81172 53.5937 1.81729C54.9968 1.81729 56.3936 1.81729 57.8327 1.81729C57.8327 3.90552 57.8327 5.98813 57.8327 8.10601C60.5231 8.10601 63.1715 8.10601 65.8623 8.10601C65.8623 6.01748 65.8623 3.93491 65.8623 1.82194C67.3008 1.82194 68.6977 1.82194 70.1301 1.82194C70.1301 6.78262 70.1301 11.7509 70.1301 16.7455C68.7272 16.7455 67.3303 16.7455 65.8911 16.7455C65.8911 15.0645 65.8911 13.3889 65.8911 11.6425C65.0343 11.6425 64.2177 11.6425 63.3606 11.6425Z" fill="#29272F"/>
<path d="M82.6279 26.3946C81.4051 27.1224 80.1918 27.8169 78.9341 28.5368C78.9341 27.0261 78.9341 25.5854 78.9341 24.1219C80.1661 24.1219 81.3836 24.1219 82.6373 24.1219C82.6373 24.8794 82.6373 25.6203 82.6279 26.3946Z" fill="#29272F"/>
</g>
<defs>
<clipPath id="clip0_1_30">
<rect width="165.746" height="46" fill="white" transform="translate(0.253967)"/>
</clipPath>
</defs>
</svg>
