<svg width="78" height="77" viewBox="0 0 78 77" fill="none" xmlns="http://www.w3.org/2000/svg">
<path fill-rule="evenodd" clip-rule="evenodd" d="M14.0284 32.2141C18.2498 25.2781 20.413 17.9987 23.0407 10.4415C23.5537 8.96558 22.7743 7.3581 21.3034 6.84476C19.8316 6.33113 18.2206 7.11544 17.7068 8.59109C15.2153 15.7571 13.2138 22.6929 9.20549 29.2818C8.39442 30.6144 8.81688 32.3558 10.1494 33.1609C11.4781 33.9747 13.2182 33.547 14.0284 32.2141Z" fill="#29272F"/>
<path fill-rule="evenodd" clip-rule="evenodd" d="M25.1433 51.7429C41.307 44.2331 57.7817 33.2106 70.743 20.9218C71.8739 19.848 71.9227 18.0578 70.8498 16.9301C69.777 15.8024 67.9895 15.7516 66.8585 16.8254C54.3257 28.7067 38.3924 39.3674 22.765 46.622C21.3514 47.2811 20.7373 48.9619 21.3943 50.3728C22.0512 51.7837 23.7297 52.4019 25.1433 51.7429Z" fill="#29272F"/>
<path fill-rule="evenodd" clip-rule="evenodd" d="M24.3698 65.2719C35.2473 70.785 48.0937 71.2859 59.9684 70.0101C61.5192 69.8383 62.6412 68.446 62.4737 66.9034C62.3082 65.3515 60.9143 64.231 59.3663 64.3938C48.5504 65.5597 36.8296 65.2561 26.9222 60.2365C25.5325 59.5316 23.8319 60.0903 23.1291 61.4768C22.4255 62.8629 22.981 64.5674 24.3698 65.2719Z" fill="#29272F"/>
</svg>
