<svg width="25" height="25" viewBox="0 0 25 25" fill="none" xmlns="http://www.w3.org/2000/svg">
<path d="M11.9683 24.5C10.5802 24.5 9.64221 23.3156 9.64221 21.7928C9.64221 20.9468 9.97987 19.6609 10.6552 17.9351C11.3305 16.1754 11.6682 14.4834 11.6682 12.7238C10.0174 13.6374 8.77928 14.5849 7.84133 15.5325C5.96541 17.4275 4.12701 19.2887 2.17606 19.2887C0.975476 19.2887 0 18.4427 0 17.4275C0 16.3108 1.01299 15.1941 3.22657 14.6526C4.31461 14.3819 5.55271 14.0773 6.94089 13.8405C8.29155 13.6036 9.79228 13.0622 11.368 12.25C9.75476 11.4378 8.21651 10.8964 6.79081 10.6257C3.97694 10.0843 1.72584 9.64434 0.750366 8.62914C0.262628 8.12155 0 7.58011 0 7.00483C0 5.98964 0.900439 5.21132 2.21358 5.21132C4.20205 5.21132 6.52819 7.58011 8.17899 9.2721C9.00439 10.1181 10.1675 10.9641 11.6682 11.7762V11.3363C11.6682 9.98274 11.5556 8.86602 11.2555 8.05387C10.6552 6.42956 9.71724 3.89157 9.71724 2.70718C9.71724 1.15055 10.6927 0 12.0434 0C13.3565 0 14.3695 1.08287 14.3695 2.70718C14.3695 3.51934 14.0318 4.83909 13.3565 6.6326C12.6812 8.4261 12.3435 10.1519 12.3435 11.7762C14.4821 10.558 14.2194 10.6934 16.0578 9.1029C17.8212 7.34323 19.0593 6.26036 19.7346 5.85428C20.4475 5.41436 21.1603 5.21132 21.9107 5.21132C23.1113 5.21132 24.0117 5.9558 24.0117 7.00483C24.0117 8.15539 23.0738 9.13674 20.8977 9.7797C19.8472 10.0843 18.6091 10.355 17.2209 10.6257C15.7952 10.8964 14.2945 11.4378 12.6437 12.25C14.257 13.0622 15.7202 13.5697 17.1083 13.8405C19.8472 14.3819 22.1733 14.8557 23.2238 15.837C23.7491 16.3446 24.0117 16.8522 24.0117 17.4275C24.0117 18.4427 23.1113 19.2887 21.7981 19.2887C19.5846 19.2887 16.7332 16.1077 15.6451 14.991C15.1199 14.4496 13.9943 13.6713 12.3435 12.7238V13.1637C12.3435 14.6188 12.6812 16.2431 13.319 18.0028C13.9568 19.7624 14.2945 21.0145 14.2945 21.7928C14.2945 23.3833 13.2815 24.5 11.9683 24.5Z" fill="#F4962C"/>
</svg>
