<svg width="177" height="50" viewBox="0 0 177 50" fill="none" xmlns="http://www.w3.org/2000/svg">
<g clip-path="url(#clip0_1_8)">
<path d="M30.7114 47.457C29.3827 47.4612 28.0539 47.4654 26.6851 47.4235C26.6451 44.0174 26.6535 40.6574 26.6395 37.2974C26.6358 36.4064 26.2749 35.66 25.5105 35.17C25.0142 34.852 24.4568 34.6894 23.8591 34.69C22.0289 34.6918 20.1981 34.7188 18.369 34.6769C17.6302 34.66 17.2925 35.0422 17.2952 35.7694C17.3098 39.6652 17.3022 43.5611 17.3023 47.457C16.0312 47.4612 14.7601 47.4654 13.449 47.4235C13.409 43.4693 13.4092 39.5612 13.4089 35.6531C13.4089 34.9687 13.1374 34.691 12.4669 34.6909C9.98972 34.6903 7.51253 34.6904 5.03534 34.6908C4.34751 34.6908 4.06621 34.9675 4.06616 35.6458C4.06587 39.5829 4.06618 43.52 4.06628 47.457C2.78239 47.457 1.4985 47.457 0.15401 47.457C0.15401 47.1413 0.15401 46.8444 0.120254 46.5313C0.0864984 46.0784 0.0864984 45.6417 0.120522 45.1479C0.1607 43.3707 0.168693 41.6507 0.172591 39.9308C0.178914 37.1406 0.182553 34.3505 0.226929 31.5604C8.83993 31.5606 17.4133 31.555 25.9867 31.5671C27.1828 31.5688 28.215 32.0695 29.0989 32.8589C30.2472 33.8844 30.6973 35.2291 30.7051 36.7264C30.7238 40.3032 30.7113 43.8801 30.7114 47.457Z" fill="#29272F"/>
<path d="M0.0864868 2.73584C0.115903 2.4581 0.14532 2.22095 0.220076 1.94748C6.02262 1.91116 11.7798 1.91116 17.5292 1.91116C17.5292 3.19789 17.5292 4.40708 17.5292 5.66039C15.4002 5.66039 13.303 5.66039 11.1476 5.66039C11.1476 9.7637 11.1476 13.8228 11.1476 17.8802C9.59707 17.8802 8.10563 17.8802 6.55569 17.8802C6.55569 13.7911 6.55569 9.73198 6.55569 5.65697C4.39326 5.65697 2.28968 5.65697 0.180389 5.6163C0.145277 5.0792 0.115882 4.58278 0.0864868 4.08635C0.0864868 3.64971 0.0864868 3.21307 0.0864868 2.73584Z" fill="#29272F"/>
<path d="M118.732 47.4633C117.917 47.201 117.22 46.7965 116.837 46.0612C116.59 45.5858 116.386 45.0238 116.377 44.4969C116.332 41.7881 116.319 39.0775 116.367 36.3688C116.41 33.9691 118.085 32.0857 120.408 31.652C120.756 31.5871 121.116 31.5652 121.471 31.5645C124.614 31.5579 127.757 31.5607 130.9 31.5607C131.057 31.5607 131.214 31.5607 131.42 31.5607C131.381 31.7014 131.366 31.8099 131.322 31.9041C130.938 32.7147 130.54 33.5184 130.167 34.3341C130.046 34.6011 129.898 34.7013 129.593 34.6991C127.431 34.6832 125.268 34.6829 123.106 34.6941C122.082 34.6994 121.227 35.1075 120.729 36.018C120.494 36.4464 120.363 36.9842 120.353 37.4759C120.311 39.4456 120.334 41.4167 120.337 43.3873C120.337 43.9249 120.561 44.3612 121.279 44.3555C125.056 44.3255 128.834 44.3414 132.611 44.3414C132.768 44.3414 132.924 44.3414 133.129 44.3414C133.129 38.1669 133.129 32.0186 133.129 25.8464C134.439 25.8464 135.702 25.8464 137.032 25.8464C137.032 33.0191 137.032 40.1982 137.032 47.4172C136.946 47.4618 136.86 47.4708 136.774 47.4708C130.774 47.4709 124.773 47.4702 118.732 47.4633Z" fill="#29272F"/>
<path d="M36.3739 47.4633C35.1289 47.0745 34.1762 46.3431 34.0746 45.0387C33.9484 43.4186 33.9586 41.7737 34.0802 40.1524C34.1907 38.6791 35.74 37.8871 36.9524 37.8981C40.0952 37.9264 43.2383 37.9076 46.3813 37.9076C46.5385 37.9076 46.6956 37.9076 46.9399 37.9076C46.5628 38.6868 46.2221 39.4164 45.8492 40.1289C45.8031 40.2172 45.5862 40.2495 45.4483 40.2499C43.1992 40.2572 40.9501 40.2549 38.701 40.2552C38.014 40.2552 37.8054 40.4634 37.8051 41.1485C37.8047 41.9599 37.8017 42.7714 37.8062 43.5828C37.809 44.0945 38.0591 44.3412 38.5626 44.3412C42.6138 44.3416 46.6651 44.3414 50.7164 44.3414C50.831 44.3414 50.9456 44.3414 51.1276 44.3414C51.1276 44.1728 51.1276 44.0209 51.1276 43.8689C51.1276 41.652 51.1277 39.4351 51.1275 37.2182C51.1274 35.8672 50.0396 34.7777 48.6907 34.7776C44.8269 34.7775 40.963 34.7776 37.0992 34.7776C36.942 34.7776 36.7848 34.7776 36.5791 34.7776C36.6172 34.6485 36.633 34.5551 36.6712 34.472C37.0748 33.5932 37.4904 32.7198 37.8821 31.8357C37.9796 31.6158 38.0994 31.5548 38.3308 31.5553C42.3965 31.5627 46.4629 31.5169 50.5275 31.583C52.071 31.6081 53.3363 32.3625 54.2501 33.6621C54.8549 34.5222 55.1153 35.4636 55.1117 36.5103C55.0996 40.1326 55.1071 43.755 55.1072 47.4172C55.0213 47.4618 54.9353 47.4708 54.8492 47.4708C48.7041 47.4709 42.559 47.4702 36.3739 47.4633Z" fill="#29272F"/>
<path d="M158.267 47.4633C157.673 47.2413 157.147 46.9956 156.726 46.5402C156.184 45.954 155.92 45.2609 155.9 44.4894C155.868 43.2296 155.877 41.9683 155.895 40.7079C155.917 39.1096 157.252 37.9053 158.705 37.9066C161.906 37.9097 165.106 37.9076 168.307 37.9076C168.45 37.9076 168.593 37.9076 168.768 37.9076C168.756 38.0134 168.765 38.0998 168.735 38.1674C168.463 38.7625 168.175 39.3504 167.911 39.949C167.8 40.2006 167.636 40.2619 167.375 40.2608C165.111 40.2509 162.848 40.2549 160.584 40.2552C159.91 40.2553 159.701 40.4678 159.698 41.1613C159.696 41.9292 159.695 42.6972 159.699 43.4651C159.702 44.1244 159.92 44.3412 160.571 44.3413C164.564 44.3416 168.558 44.3414 172.551 44.3414C172.692 44.3414 172.833 44.3414 173.021 44.3414C173.021 44.1497 173.021 43.995 173.021 43.8403C173.021 41.5944 172.991 39.348 173.032 37.103C173.055 35.8476 171.676 34.7701 170.686 34.773C166.779 34.7842 162.872 34.7776 158.965 34.7776C158.813 34.7776 158.661 34.7776 158.466 34.7776C158.508 34.6407 158.523 34.559 158.557 34.4864C158.969 33.6106 159.388 32.7379 159.797 31.8603C159.899 31.6393 160.036 31.5535 160.292 31.5541C164.357 31.5634 168.423 31.5189 172.488 31.58C174.263 31.6067 176.065 32.8407 176.745 34.759C176.79 34.8848 176.862 35.0006 176.954 35.1231C176.99 38.2836 176.996 41.4422 177 44.6007C177.001 45.5404 177 46.48 177 47.4696C170.752 47.4696 164.53 47.4696 158.267 47.4633Z" fill="#29272F"/>
<path d="M92.7788 47.4633C92.7388 42.1739 92.7388 36.8907 92.7388 31.5607C92.9448 31.5607 93.1132 31.5607 93.2816 31.5607C98.0087 31.5607 102.736 31.5894 107.463 31.5482C109.729 31.5284 111.806 33.0225 112.37 35.1627C112.467 35.5309 112.541 35.9182 112.542 36.297C112.555 39.9904 112.55 43.6839 112.55 47.4172C111.25 47.4612 109.95 47.4654 108.61 47.4235C108.57 43.9896 108.571 40.6018 108.57 37.214C108.57 36.5574 108.338 35.9902 107.882 35.5241C107.34 34.9697 106.665 34.6971 105.9 34.6945C102.99 34.6849 100.08 34.6904 97.1701 34.6915C97.0307 34.6916 96.8912 34.7038 96.7188 34.712C96.7188 38.9794 96.7188 43.2182 96.7188 47.457C95.4188 47.4612 94.1188 47.4654 92.7788 47.4633Z" fill="#29272F"/>
<path d="M49.8826 1.74615C50.4965 1.8344 51.0726 1.90073 51.6422 2.00372C52.3704 2.13539 53.0959 2.28571 53.8156 2.45756C53.9166 2.48168 54.067 2.69753 54.044 2.78433C53.7694 3.82037 53.4663 4.84878 53.1646 5.90061C51.0582 5.44285 48.9448 5.21172 46.8084 5.31249C45.8101 5.35957 44.819 5.51232 43.9189 6.00877C42.6922 6.68533 42.1534 7.80239 41.9611 9.12907C41.8367 9.98684 41.8532 10.8477 42.0701 11.6904C42.4838 13.298 43.6055 14.1332 45.1613 14.4211C45.9441 14.566 46.7483 14.6925 47.5389 14.6727C48.7779 14.6418 50.0161 14.5031 51.2497 14.3655C52.0799 14.2728 52.9016 14.1033 53.751 13.9643C54.0237 15.0337 54.2946 16.0958 54.5912 17.2591C53.4738 17.4786 52.3762 17.7087 51.2732 17.9079C49.3539 18.2546 47.4117 18.2078 45.4771 18.1585C43.8722 18.1175 42.2898 17.8349 40.8343 17.1182C39.0314 16.2305 37.8912 14.7729 37.4642 12.7934C36.9975 10.6292 37.0451 8.47456 37.8155 6.38453C38.4616 4.63174 39.7405 3.44658 41.4232 2.71386C42.6749 2.16882 43.9981 1.87738 45.3873 1.77783C46.8875 1.74791 48.3647 1.74422 49.8826 1.74615Z" fill="#29272F"/>
<path d="M142.522 47.4633C142.482 43.8513 142.476 40.2457 142.485 36.64C142.49 34.1115 144.093 32.0825 146.608 31.6455C146.844 31.6043 147.085 31.5647 147.325 31.5643C150.494 31.5589 153.664 31.5607 156.834 31.5607C156.99 31.5607 157.146 31.5607 157.352 31.5607C157.26 31.7473 157.184 31.8971 157.111 32.0487C156.744 32.8187 156.365 33.5836 156.017 34.3625C155.899 34.6268 155.751 34.6998 155.47 34.6979C153.396 34.6845 151.321 34.6752 149.246 34.6957C147.666 34.7112 146.444 35.7667 146.455 37.4727C146.478 40.7742 146.462 44.0759 146.462 47.4172C145.162 47.4612 143.862 47.4654 142.522 47.4633Z" fill="#29272F"/>
<path d="M75.3037 47.4633C75.2637 44.0255 75.2629 40.594 75.2644 37.1625C75.265 35.9445 74.3179 34.9823 73.2156 34.7831C72.8536 34.7177 72.4797 34.6956 72.1112 34.6945C69.5777 34.6872 67.0441 34.6906 64.4554 34.6906C64.9617 33.6289 65.4505 32.6039 65.948 31.5607C67.0765 31.5607 68.1992 31.5607 69.3219 31.5607C71.0075 31.5607 72.6932 31.5739 74.3787 31.5574C76.5816 31.5357 78.8377 33.2192 79.1605 35.5372C79.1938 35.7765 79.2395 36.0174 79.2399 36.2576C79.245 39.9642 79.2435 43.6708 79.2436 47.4172C77.9437 47.4612 76.6437 47.4654 75.3037 47.4633Z" fill="#29272F"/>
<path d="M59.1263 47.4633C59.0862 40.2606 59.0862 33.0642 59.0862 25.8451C60.4175 25.8451 61.7092 25.8451 63.0661 25.8451C63.0661 33.0206 63.0661 40.199 63.0662 47.4172C61.7663 47.4612 60.4663 47.4654 59.1263 47.4633Z" fill="#29272F"/>
<path d="M84.0413 47.4633C84.0013 42.6651 84.0052 37.8731 83.9935 33.0813C83.9927 32.7357 84.0569 32.5171 84.3819 32.3379C85.4974 31.7231 86.5935 31.0729 87.6985 30.4388C87.7681 30.3988 87.8505 30.3813 87.9811 30.3336C87.9811 36.0405 87.9811 41.709 87.9811 47.4172C86.6813 47.4612 85.3813 47.4654 84.0413 47.4633Z" fill="#29272F"/>
<path d="M30.4516 14.3458C32.1059 14.3458 33.7169 14.3458 35.3551 14.3458C35.3551 15.5421 35.3551 16.6935 35.3551 17.8778C30.1363 17.8778 24.925 17.8778 19.6757 17.8778C19.6757 12.5804 19.6757 7.27467 19.6757 1.94083C24.7204 1.94083 29.7587 1.94083 34.8304 1.94083C34.8304 3.09738 34.8304 4.24894 34.8304 5.46129C31.2911 5.46129 27.7415 5.46129 24.1644 5.46129C24.1644 6.354 24.1644 7.18669 24.1644 8.06481C27.4786 8.06481 30.7871 8.06481 34.1335 8.06481C34.1335 9.18416 34.1335 10.2589 34.1335 11.3792C30.8187 11.3792 27.5102 11.3792 24.1691 11.3792C24.1691 12.3722 24.1691 13.3209 24.1691 14.3458C26.2429 14.3458 28.3256 14.3458 30.4516 14.3458Z" fill="#29272F"/>
<path d="M67.3915 12.433C65.4201 12.433 63.4919 12.433 61.519 12.433C61.519 14.2665 61.519 16.0559 61.519 17.8776C59.9828 17.8776 58.491 17.8776 56.9614 17.8776C56.9614 12.5798 56.9614 7.27422 56.9614 1.94067C58.4597 1.94067 59.9514 1.94067 61.4883 1.94067C61.4883 4.17069 61.4883 6.3947 61.4883 8.65639C64.3613 8.65639 67.1896 8.65639 70.063 8.65639C70.063 6.42605 70.063 4.20207 70.063 1.94563C71.5992 1.94563 73.091 1.94563 74.6206 1.94563C74.6206 7.24314 74.6206 12.5488 74.6206 17.8825C73.1224 17.8825 71.6307 17.8825 70.0938 17.8825C70.0938 16.0874 70.0938 14.298 70.0938 12.433C69.1788 12.433 68.3068 12.433 67.3915 12.433Z" fill="#29272F"/>
<path d="M87.967 28.1868C86.6612 28.964 85.3655 29.7057 84.0224 30.4744C84.0224 28.8611 84.0224 27.3226 84.0224 25.7597C85.3381 25.7597 86.6382 25.7597 87.977 25.7597C87.977 26.5687 87.977 27.3599 87.967 28.1868Z" fill="#29272F"/>
</g>
<defs>
<clipPath id="clip0_1_8">
<rect width="177" height="49.1233" fill="white"/>
</clipPath>
</defs>
</svg>
